<?xml version="1.0" standalone="no"?>
<!DOCTYPE svg PUBLIC "-//W3C//DTD SVG 20010904//EN"
 "http://www.w3.org/TR/2001/REC-SVG-20010904/DTD/svg10.dtd">
<svg version="1.0" xmlns="http://www.w3.org/2000/svg"
 width="791.000000pt" height="791.000000pt" viewBox="0 0 791.000000 791.000000"
 preserveAspectRatio="xMidYMid meet">
<metadata>
Created by potrace 1.11, written by Peter Selinger 2001-2013
</metadata>
<g transform="translate(0.000000,791.000000) scale(0.100000,-0.100000)"
fill="#000000" stroke="none">
<path d="M3729 7766 c-2 -2 -45 -6 -96 -10 -85 -6 -293 -30 -353 -41 -14 -3
-41 -8 -60 -11 -250 -41 -590 -143 -864 -261 -344 -146 -644 -326 -936 -560
-140 -111 -404 -365 -500 -480 -30 -36 -60 -71 -66 -77 -72 -77 -265 -357
-364 -531 -224 -388 -391 -868 -450 -1290 -6 -44 -13 -94 -15 -111 -27 -191
-27 -702 0 -866 2 -13 6 -45 10 -73 6 -47 39 -235 49 -280 116 -509 311 -945
608 -1367 37 -53 73 -102 80 -110 7 -7 26 -31 43 -53 29 -39 42 -55 119 -144
74 -86 331 -336 422 -413 158 -131 493 -368 520 -368 4 0 15 -6 23 -14 17 -14
141 -81 257 -140 254 -127 701 -283 924 -322 14 -3 57 -11 95 -19 86 -17 182
-33 255 -40 30 -4 61 -8 68 -10 55 -18 598 -26 782 -12 93 7 230 23 280 32 14
2 54 9 90 15 65 10 93 15 140 25 14 3 34 7 45 10 431 92 893 281 1282 525 98
62 294 200 345 242 14 13 37 32 50 42 103 84 174 150 308 285 393 397 679 846
867 1361 19 52 36 100 37 105 2 6 6 17 9 25 17 42 87 306 102 385 55 285 70
443 70 740 0 244 -7 358 -30 505 -3 19 -8 52 -11 73 -4 32 -22 131 -50 267
-54 265 -215 676 -379 971 -254 455 -653 904 -1080 1216 -55 40 -104 76 -110
80 -14 11 -145 96 -167 108 -9 6 -57 33 -105 61 -229 134 -537 269 -808 353
-106 33 -316 86 -375 96 -19 3 -55 10 -80 15 -55 12 -91 18 -150 26 -25 3 -56
7 -70 9 -14 3 -56 7 -95 11 -38 3 -81 8 -95 11 -28 5 -566 14 -571 9z"/>
</g>
</svg>
